<svg version="1.1" xmlns="http://www.w3.org/2000/svg" style="display: block;" viewBox="0 0 2048 2048" preserveAspectRatio="xMidYMid meet">
<path transform="translate(0,0)" fill="rgb(92,25,39)" d="M 0 0 L 2048 0 L 2048 2048 L 0 2048 L 0 0 z"/>
<path transform="translate(0,0)" fill="rgb(58,24,5)" d="M 1031.39 274.386 C 1059.13 270.898 1086.51 293.491 1107.58 308.907 C 1132.71 327.288 1157.17 346.754 1181.61 366.007 C 1222.82 397.934 1263.34 430.722 1303.17 464.349 C 1345.58 499.842 1387.21 535.883 1430.06 571.34 C 1502.75 631.486 1580.93 687.576 1649.06 752.882 C 1667.34 770.4 1696.27 793.146 1689.99 821.539 C 1684.53 846.189 1652.05 854.828 1633.06 867.793 L 1631.63 868.78 C 1672.23 879.616 1733.23 883.962 1761.13 916.325 C 1783.25 944.407 1774.96 979.618 1755.36 1005.71 C 1724.7 1046.53 1687.4 1081.2 1650.88 1116.18 C 1613.63 1151.97 1575.48 1186.82 1536.48 1220.67 C 1516.69 1238.05 1494.01 1258.59 1473.58 1274.53 C 1475.77 1291.45 1476.79 1308.81 1479.18 1325.75 C 1485.19 1368.25 1492.08 1410.68 1498.8 1453.08 C 1503 1479.85 1507.35 1506.59 1511.84 1533.32 C 1520.44 1584.1 1532.08 1647.38 1527.08 1699.18 C 1524.23 1718.07 1513.94 1736.74 1498.52 1747.65 C 1465.84 1770.75 1425.69 1756.1 1391.64 1743 C 1314.87 1713.45 1242.41 1670.82 1170.7 1630.56 C 1140.04 1613.62 1109.25 1596.93 1078.32 1580.48 C 1068.54 1575.22 1033.55 1553.61 1025.38 1552.9 C 1000.04 1564.23 976.346 1578.37 951.546 1591.3 C 849.62 1644.44 751.83 1710.5 643.458 1749.96 C 605.55 1763.76 566.272 1764.33 542.109 1727.78 C 522.115 1697.55 529.034 1657.35 532.874 1623.05 C 536.119 1592.46 540.339 1561.98 545.527 1531.66 C 553.653 1479.14 562.328 1426.71 571.549 1374.38 C 574.309 1358.4 577.284 1341.93 579.423 1325.88 C 581.725 1308.61 582.802 1291.08 586.202 1273.93 C 552.938 1242.69 516.839 1213.29 483.738 1181.71 C 428.687 1129.18 372.226 1077.05 320.368 1021.36 C 312.722 1013.15 296.052 990.765 292.524 980.182 C 259.633 881.539 392.18 888.862 442.896 866.315 C 422.408 856.092 381.113 840.277 378.027 814.661 C 375.631 791.003 389.072 776.672 406.027 763.21 C 441.545 735.007 476.248 705.956 511.258 677.23 L 590.156 613.434 C 719.867 506.565 845.234 391.972 981.538 293.153 C 996.851 282.051 1012.73 276.476 1031.39 274.386 z"/>
<path transform="translate(0,0)" fill="rgb(244,182,71)" d="M 837.376 744.285 C 934.935 736.097 1032.92 734.14 1130.73 738.428 C 1161.14 739.807 1197.11 741.34 1227.16 745.258 C 1235.97 764.784 1243.34 783.206 1251.13 803.154 C 1283.55 895.12 1280.03 886.594 1374.77 897.658 C 1445.61 905.597 1516.41 913.962 1587.16 922.754 C 1618.98 926.869 1652.47 930.816 1683.94 936.93 C 1691.66 938.428 1700.43 942.655 1707.34 946.416 C 1711.03 947.815 1714.96 949.231 1717.04 952.854 C 1719.18 956.586 1718.23 961.163 1716.74 964.941 C 1703.03 999.823 1518.52 1164.75 1478.31 1200.37 C 1469.87 1207.85 1461.17 1215.04 1452.23 1221.92 C 1429.7 1239.25 1416.71 1246.1 1418.93 1278.39 C 1420.82 1305.86 1426.02 1333.17 1430.25 1360.39 C 1439.67 1420.8 1448.56 1481.29 1456.93 1541.85 C 1461.97 1576.85 1473.86 1650.79 1470.94 1683.53 C 1469.63 1686.7 1468.27 1690.25 1466.74 1693.29 C 1458.91 1706.04 1450.47 1709.46 1436 1704.92 C 1416.87 1698.92 1398.45 1689.42 1380.54 1680.48 C 1351.33 1666.13 1322.5 1651.03 1294.07 1635.18 C 1235.86 1603.03 1177.43 1571.29 1118.78 1539.96 C 1093.38 1526.47 1067.21 1511.32 1040.62 1500.72 C 1020.88 1492.85 995.73 1508.38 978.786 1516.98 C 961.163 1525.93 943.682 1535.06 926.246 1544.37 L 731.724 1650.81 C 695.012 1670.64 655.384 1692.18 615.602 1704.54 C 603.223 1708.39 594.241 1702.93 588.684 1692.14 C 587.281 1689.17 586.668 1686.46 585.795 1683.31 C 581.799 1663.5 593.041 1592.11 596.268 1569.44 C 606.287 1498.72 617.403 1428.15 629.612 1357.77 C 633.876 1332.48 644.213 1287.31 641.045 1263.27 C 638.986 1247.63 632.771 1238.89 620.531 1229.63 C 613.983 1224.68 607.165 1219.92 600.896 1214.63 C 560.563 1180.54 364.825 1000.79 347.859 965.985 C 345.874 961.912 345.424 958.359 346.929 954.091 C 351.54 940.222 400.366 933.542 413.458 931.57 C 434.615 928.44 455.793 925.457 476.991 922.62 C 542.691 913.713 608.449 905.232 674.259 897.179 C 775.197 884.759 762.497 897.069 808.722 804.001 C 818.817 782.673 826.153 765.337 837.376 744.285 z"/>
<path transform="translate(0,0)" fill="rgb(215,132,27)" d="M 588.684 1692.14 C 592.601 1688.97 597.292 1685.5 600.902 1682.06 C 616.981 1666.76 636.363 1657.1 655.538 1645.86 L 720.012 1607.63 L 852.034 1529.98 L 944.077 1476.64 C 963.492 1465.32 982.082 1453.7 1002.43 1443.95 C 1025.8 1432.74 1044.18 1436.47 1066.16 1448.57 C 1086.8 1459.92 1107.02 1472.13 1127.36 1484.03 L 1253.53 1558.52 L 1369.55 1626.73 C 1397.29 1643.02 1444.52 1667.48 1464.84 1691.07 L 1466.04 1692.45 C 1466.27 1692.73 1466.51 1693.01 1466.74 1693.29 C 1458.91 1706.04 1450.47 1709.46 1436 1704.92 C 1416.87 1698.92 1398.45 1689.42 1380.54 1680.48 C 1351.33 1666.13 1322.5 1651.03 1294.07 1635.18 C 1235.86 1603.03 1177.43 1571.29 1118.78 1539.96 C 1093.38 1526.47 1067.21 1511.32 1040.62 1500.72 C 1020.88 1492.85 995.73 1508.38 978.786 1516.98 C 961.163 1525.93 943.682 1535.06 926.246 1544.37 L 731.724 1650.81 C 695.012 1670.64 655.384 1692.18 615.602 1704.54 C 603.223 1708.39 594.241 1702.93 588.684 1692.14 z"/>
<path transform="translate(0,0)" fill="rgb(215,132,27)" d="M 1707.34 946.416 C 1711.03 947.815 1714.96 949.231 1717.04 952.854 C 1719.18 956.586 1718.23 961.163 1716.74 964.941 C 1703.03 999.823 1518.52 1164.75 1478.31 1200.37 C 1469.87 1207.85 1461.17 1215.04 1452.23 1221.92 C 1429.7 1239.25 1416.71 1246.1 1418.93 1278.39 C 1420.82 1305.86 1426.02 1333.17 1430.25 1360.39 C 1439.67 1420.8 1448.56 1481.29 1456.93 1541.85 C 1461.97 1576.85 1473.86 1650.79 1470.94 1683.53 C 1463.14 1677.65 1456.91 1644.08 1454.61 1633.36 L 1400.01 1367.53 L 1385.14 1295.79 C 1379.94 1271.39 1367.32 1229.95 1384.89 1208.42 C 1401.33 1188.28 1427.2 1169.23 1447.67 1152.41 L 1530.2 1084.46 C 1559.32 1060.17 1588.3 1035.69 1617.13 1011.05 C 1639.51 992.091 1662.16 973.094 1685.54 955.361 C 1689.16 952.613 1696.79 948.795 1701.32 947.972 C 1703.34 947.603 1703.45 947.691 1705.7 946.959 L 1707.34 946.416 z"/>
<path transform="translate(0,0)" fill="rgb(215,132,27)" d="M 346.929 954.091 C 348.585 954.143 348.904 954.349 350.402 953.524 C 354.33 951.362 356.883 950.054 361.411 951.358 C 375.844 955.513 635.142 1170.18 664.36 1197.6 C 669.614 1202.53 674.295 1207.66 677.71 1214.09 C 683.969 1225.86 685.069 1238.94 683.645 1251.99 C 681.677 1270 676.208 1288.12 672.32 1305.84 L 649.729 1409.76 L 615.418 1568.66 C 610.734 1590.5 596.138 1667.47 585.795 1683.31 C 581.799 1663.5 593.041 1592.11 596.268 1569.44 C 606.287 1498.72 617.403 1428.15 629.612 1357.77 C 633.876 1332.48 644.213 1287.31 641.045 1263.27 C 638.986 1247.63 632.771 1238.89 620.531 1229.63 C 613.983 1224.68 607.165 1219.92 600.896 1214.63 C 560.563 1180.54 364.825 1000.79 347.859 965.985 C 345.874 961.912 345.424 958.359 346.929 954.091 z"/>
<path transform="translate(0,0)" fill="rgb(215,132,27)" d="M 837.376 744.285 C 934.935 736.097 1032.92 734.14 1130.73 738.428 C 1161.14 739.807 1197.11 741.34 1227.16 745.258 C 1235.97 764.784 1243.34 783.206 1251.13 803.154 C 1232.76 802.934 1199.59 799.402 1180.07 798.059 C 1136.96 794.772 1093.76 792.797 1050.53 792.135 C 976.024 790.686 883.401 798.765 808.722 804.001 C 818.817 782.673 826.153 765.337 837.376 744.285 z"/>
<path transform="translate(0,0)" fill="rgb(58,24,5)" d="M 926.552 1145.1 C 949.568 1143.88 955.631 1164.49 973.282 1176.92 C 1008.45 1201.68 1060.09 1197.1 1095.32 1174.59 C 1109.36 1165.61 1115.87 1151.53 1130.4 1147.6 C 1135.88 1146.86 1143.16 1149.23 1146.96 1153.07 C 1163.55 1169.84 1152.53 1189.77 1139.78 1203.77 C 1126.62 1216.86 1111.03 1227.25 1093.88 1234.34 C 1055.2 1250.65 1010.33 1249.34 971.433 1233.82 C 948.201 1223.46 918.989 1204.56 908.766 1180.28 C 901.525 1163.07 909.86 1150.45 926.552 1145.1 z"/>
<path transform="translate(0,0)" fill="rgb(58,24,5)" d="M 1193.57 997.262 C 1210.25 996.039 1230.23 999.444 1235.32 1017.59 C 1243.81 1047.89 1246.53 1092.64 1210.48 1105.26 C 1162.53 1110.16 1158.3 1066.36 1160.75 1030.8 C 1162.25 1008.92 1172.56 1000.76 1193.57 997.262 z"/>
<path transform="translate(0,0)" fill="rgb(58,24,5)" d="M 859.203 992.193 C 866.214 992.231 869.12 992.941 875.649 995.851 C 911.359 1011.75 908.767 1051.32 895.759 1081.57 C 891.048 1092.53 880.222 1098.55 869.442 1101.78 C 827.466 1104.51 819.643 1065.44 822.981 1033.23 C 825.475 1009.16 835.527 997.08 859.203 992.193 z"/>
<path transform="translate(0,0)" fill="rgb(254,225,180)" d="M 1034.83 323.722 L 1041.22 329.177 C 1070.79 346.998 1086.39 361.473 1112.75 383.205 C 1134.89 401.534 1157.22 419.639 1179.73 437.517 L 1441.47 649.176 C 1485.57 684.565 1529.5 721.089 1575.43 754.169 C 1552.72 747.096 1529.53 741.821 1506.37 736.443 C 1462.18 726.094 1417.63 717.337 1372.82 710.187 C 1261.13 691.724 1148.18 681.997 1034.99 681.095 C 919.642 681.052 817.198 690.951 703.785 705.486 C 701.122 706.524 689.826 707.945 686.563 708.433 C 625.928 717.498 565.865 728.75 507.071 746.462 C 530.487 728.175 554.587 710.854 578.208 692.117 C 643.419 639.652 708.211 586.668 772.578 533.171 L 897.454 432.046 C 931.74 404.255 966.207 376.689 1000.85 349.35 C 1012.49 340.154 1023.44 333.617 1034.83 323.722 z"/>
<path transform="translate(0,0)" fill="rgb(244,182,71)" d="M 1034.83 323.722 L 1041.22 329.177 C 1038.7 336.243 1027.52 353.573 1023.2 360.666 L 988.19 417.849 L 892.689 570.793 C 873.699 601.027 855.658 631.954 835.32 661.403 C 827.686 672.456 814.303 684.26 807.14 665.494 C 802.704 652.761 819.221 627.429 825.463 616.833 C 852.083 577.656 877.914 537.348 905.473 498.796 C 927.754 467.629 949.361 438.41 970.171 406.084 C 947.332 426.055 916.044 459.923 895.104 482.384 C 850.098 530.946 805.946 580.293 762.67 630.403 C 742.577 654.076 722.534 680.899 702.464 703.768 C 703.119 705.322 702.599 704.819 703.785 705.486 C 701.122 706.524 689.826 707.945 686.563 708.433 C 625.928 717.498 565.865 728.75 507.071 746.462 C 530.487 728.175 554.587 710.854 578.208 692.117 C 643.419 639.652 708.211 586.668 772.578 533.171 L 897.454 432.046 C 931.74 404.255 966.207 376.689 1000.85 349.35 C 1012.49 340.154 1023.44 333.617 1034.83 323.722 z"/>
<path transform="translate(0,0)" fill="rgb(244,182,71)" d="M 1064.81 390.876 C 1091.99 410.733 1157.91 576.053 1170.84 615.04 C 1175.01 627.624 1177.34 636.878 1170.92 648.996 C 1157.18 660.072 1148.59 651.737 1139.3 640.082 C 1121.48 617.735 1117.39 591.251 1110.84 564.333 L 1093.06 493.473 C 1084.63 460.204 1072.26 423.409 1064.81 390.876 z"/>
<path transform="translate(0,0)" fill="rgb(244,182,71)" d="M 1194.63 496.583 C 1202.24 497.764 1232.26 526.89 1239.26 533.349 C 1256.25 548.995 1273.35 564.522 1290.56 579.929 C 1305.31 593.275 1320.21 606.447 1335.26 619.444 C 1345.49 628.27 1356.34 637.088 1366.04 646.413 C 1372.96 653.061 1382.3 660.869 1376.07 670.513 C 1343.09 692.656 1260.32 578.711 1240.61 555.38 C 1226.16 538.259 1207.25 514.806 1194.63 496.583 z"/>
<path transform="translate(0,0)" fill="rgb(163,74,36)" d="M 1293.08 753.74 C 1351.35 757.135 1413.74 773.575 1471.38 784.38 C 1518.09 793.136 1566.01 806.873 1611.9 819.209 C 1602.32 824.337 1592.36 828.497 1582.41 832.848 C 1570.05 838.755 1534.78 855.72 1523.35 858.279 C 1518.82 859.295 1477.61 853.323 1469.4 852.287 C 1422.62 846.383 1372.01 843.195 1325.72 835.114 C 1312.83 806.357 1303.96 783.233 1293.08 753.74 z"/>
<path transform="translate(0,0)" fill="rgb(163,74,36)" d="M 760.334 752.5 C 764.472 751.948 765.102 751.706 769.106 752.456 C 767.806 762.25 739.298 820.961 733.015 832.233 C 686.158 839.621 639.164 846.112 592.059 851.7 C 583.568 852.768 551.705 857.943 545.617 856.629 C 532.48 853.793 505.726 841.32 493.225 835.269 C 481.448 829.982 470.165 823.355 459.227 816.527 C 511.573 798.266 565.038 787.332 619.022 776.06 C 669.774 765.462 708.966 758.074 760.334 752.5 z"/>
</svg>